<svg width="800" height="600" viewBox="0 0 800 600" fill="none" xmlns="http://www.w3.org/2000/svg">
  <rect width="800" height="600" fill="#1E1E1E"/>
  <g opacity="0.2">
    <rect x="40" y="40" width="40" height="40" fill="#6D28D9"/>
    <rect x="120" y="40" width="40" height="40" fill="#6D28D9"/>
    <rect x="200" y="40" width="40" height="40" fill="#6D28D9"/>
    <rect x="280" y="40" width="40" height="40" fill="#6D28D9"/>
    <rect x="360" y="40" width="40" height="40" fill="#6D28D9"/>
    <rect x="440" y="40" width="40" height="40" fill="#6D28D9"/>
    <rect x="520" y="40" width="40" height="40" fill="#6D28D9"/>
    <rect x="600" y="40" width="40" height="40" fill="#6D28D9"/>
    <rect x="680" y="40" width="40" height="40" fill="#6D28D9"/>
    <rect x="40" y="120" width="40" height="40" fill="#6D28D9"/>
    <rect x="120" y="120" width="40" height="40" fill="#6D28D9"/>
    <rect x="200" y="120" width="40" height="40" fill="#6D28D9"/>
    <rect x="280" y="120" width="40" height="40" fill="#6D28D9"/>
    <rect x="360" y="120" width="40" height="40" fill="#6D28D9"/>
    <rect x="440" y="120" width="40" height="40" fill="#6D28D9"/>
    <rect x="520" y="120" width="40" height="40" fill="#6D28D9"/>
    <rect x="600" y="120" width="40" height="40" fill="#6D28D9"/>
    <rect x="680" y="120" width="40" height="40" fill="#6D28D9"/>
    <rect x="40" y="200" width="40" height="40" fill="#6D28D9"/>
    <rect x="120" y="200" width="40" height="40" fill="#6D28D9"/>
    <rect x="200" y="200" width="40" height="40" fill="#6D28D9"/>
    <rect x="280" y="200" width="40" height="40" fill="#6D28D9"/>
    <rect x="360" y="200" width="40" height="40" fill="#6D28D9"/>
    <rect x="440" y="200" width="40" height="40" fill="#6D28D9"/>
    <rect x="520" y="200" width="40" height="40" fill="#6D28D9"/>
    <rect x="600" y="200" width="40" height="40" fill="#6D28D9"/>
    <rect x="680" y="200" width="40" height="40" fill="#6D28D9"/>
    <rect x="40" y="280" width="40" height="40" fill="#6D28D9"/>
    <rect x="120" y="280" width="40" height="40" fill="#6D28D9"/>
    <rect x="200" y="280" width="40" height="40" fill="#6D28D9"/>
    <rect x="280" y="280" width="40" height="40" fill="#6D28D9"/>
    <rect x="360" y="280" width="40" height="40" fill="#6D28D9"/>
    <rect x="440" y="280" width="40" height="40" fill="#6D28D9"/>
    <rect x="520" y="280" width="40" height="40" fill="#6D28D9"/>
    <rect x="600" y="280" width="40" height="40" fill="#6D28D9"/>
    <rect x="680" y="280" width="40" height="40" fill="#6D28D9"/>
    <rect x="40" y="360" width="40" height="40" fill="#6D28D9"/>
    <rect x="120" y="360" width="40" height="40" fill="#6D28D9"/>
    <rect x="200" y="360" width="40" height="40" fill="#6D28D9"/>
    <rect x="280" y="360" width="40" height="40" fill="#6D28D9"/>
    <rect x="360" y="360" width="40" height="40" fill="#6D28D9"/>
    <rect x="440" y="360" width="40" height="40" fill="#6D28D9"/>
    <rect x="520" y="360" width="40" height="40" fill="#6D28D9"/>
    <rect x="600" y="360" width="40" height="40" fill="#6D28D9"/>
    <rect x="680" y="360" width="40" height="40" fill="#6D28D9"/>
    <rect x="40" y="440" width="40" height="40" fill="#6D28D9"/>
    <rect x="120" y="440" width="40" height="40" fill="#6D28D9"/>
    <rect x="200" y="440" width="40" height="40" fill="#6D28D9"/>
    <rect x="280" y="440" width="40" height="40" fill="#6D28D9"/>
    <rect x="360" y="440" width="40" height="40" fill="#6D28D9"/>
    <rect x="440" y="440" width="40" height="40" fill="#6D28D9"/>
    <rect x="520" y="440" width="40" height="40" fill="#6D28D9"/>
    <rect x="600" y="440" width="40" height="40" fill="#6D28D9"/>
    <rect x="680" y="440" width="40" height="40" fill="#6D28D9"/>
    <rect x="40" y="520" width="40" height="40" fill="#6D28D9"/>
    <rect x="120" y="520" width="40" height="40" fill="#6D28D9"/>
    <rect x="200" y="520" width="40" height="40" fill="#6D28D9"/>
    <rect x="280" y="520" width="40" height="40" fill="#6D28D9"/>
    <rect x="360" y="520" width="40" height="40" fill="#6D28D9"/>
    <rect x="440" y="520" width="40" height="40" fill="#6D28D9"/>
    <rect x="520" y="520" width="40" height="40" fill="#6D28D9"/>
    <rect x="600" y="520" width="40" height="40" fill="#6D28D9"/>
    <rect x="680" y="520" width="40" height="40" fill="#6D28D9"/>
  </g>
</svg> 